<svg width="54" height="54" viewBox="0 0 54 54" fill="none" xmlns="http://www.w3.org/2000/svg">
<g filter="url(#filter0_dd_277_17924)">
<rect x="3.5" y="2.5" width="47" height="47" rx="7.5" fill="white" stroke="#D1D5DB"/>
<path d="M21 24.8L15.0001 24.8C13.0118 24.8 11.4001 26.4118 11.4001 28.4V28.4C11.4001 30.3883 13.0118 32 15.0001 32L39 32C40.9882 32 42.6 33.6118 42.6 35.6V35.6C42.6 37.5883 40.9883 39.2 39 39.2L13.8001 39.2C12.4746 39.2 11.4 40.2746 11.4 41.6V41.6" stroke="#93C5FD" stroke-width="2.4" stroke-linecap="round" stroke-linejoin="round"/>
<path d="M25.8 20V24.8H30.6L42.6 12.8L37.8 8L25.8 20Z" stroke="#3B82F6" stroke-width="2.4" stroke-linejoin="round"/>
<path d="M34.2001 11.6L39.0001 16.4" stroke="#3B82F6" stroke-width="2.4" stroke-linejoin="round"/>
</g>
<defs>
<filter id="filter0_dd_277_17924" x="0" y="0" width="54" height="54" filterUnits="userSpaceOnUse" color-interpolation-filters="sRGB">
<feFlood flood-opacity="0" result="BackgroundImageFix"/>
<feColorMatrix in="SourceAlpha" type="matrix" values="0 0 0 0 0 0 0 0 0 0 0 0 0 0 0 0 0 0 127 0" result="hardAlpha"/>
<feOffset dy="1"/>
<feGaussianBlur stdDeviation="1"/>
<feColorMatrix type="matrix" values="0 0 0 0 0 0 0 0 0 0 0 0 0 0 0 0 0 0 0.06 0"/>
<feBlend mode="normal" in2="BackgroundImageFix" result="effect1_dropShadow_277_17924"/>
<feColorMatrix in="SourceAlpha" type="matrix" values="0 0 0 0 0 0 0 0 0 0 0 0 0 0 0 0 0 0 127 0" result="hardAlpha"/>
<feOffset dy="1"/>
<feGaussianBlur stdDeviation="1.5"/>
<feColorMatrix type="matrix" values="0 0 0 0 0 0 0 0 0 0 0 0 0 0 0 0 0 0 0.1 0"/>
<feBlend mode="normal" in2="effect1_dropShadow_277_17924" result="effect2_dropShadow_277_17924"/>
<feBlend mode="normal" in="SourceGraphic" in2="effect2_dropShadow_277_17924" result="shape"/>
</filter>
</defs>
</svg>
