<svg width="54" height="54" viewBox="0 0 54 54" fill="none" xmlns="http://www.w3.org/2000/svg">
<g filter="url(#filter0_dd_277_17945)">
<rect x="3.5" y="2.5" width="47" height="47" rx="7.5" fill="white" stroke="#D1D5DB"/>
<path d="M31.3962 15.4995L30.2202 15.2607C30.1485 15.6137 30.2392 15.9801 30.4671 16.2589C30.695 16.5377 31.0361 16.6995 31.3962 16.6995V15.4995ZM39.9012 24.0045H38.7012C38.7012 24.3646 38.8629 24.7057 39.1417 24.9336C39.4206 25.1615 39.787 25.2521 40.1399 25.1805L39.9012 24.0045ZM39.9012 34.2944L40.1399 33.1184C39.787 33.0468 39.4206 33.1374 39.1417 33.3653C38.8629 33.5933 38.7012 33.9343 38.7012 34.2944H39.9012ZM31.3955 42.7995L30.2194 42.5608C30.1478 42.9137 30.2385 43.2802 30.4664 43.5589C30.6943 43.8377 31.0354 43.9995 31.3955 43.9995V42.7995ZM21.1054 42.7995V43.9995C21.4655 43.9995 21.8065 43.8377 22.0344 43.5589C22.2623 43.2802 22.353 42.9137 22.2814 42.5608L21.1054 42.7995ZM12.6012 34.2947L12.8398 33.1187C12.4869 33.0471 12.1205 33.1377 11.8417 33.3656C11.5629 33.5936 11.4012 33.9346 11.4012 34.2947H12.6012ZM12.6012 24.0046H11.4012C11.4012 24.3647 11.5629 24.7058 11.8417 24.9337C12.1205 25.1616 12.4869 25.2522 12.8398 25.1806L12.6012 24.0046ZM21.1062 15.4995V16.6995C21.4663 16.6995 21.8074 16.5377 22.0353 16.2589C22.2632 15.9801 22.3539 15.6137 22.2822 15.2607L21.1062 15.4995ZM32.5722 15.7382C32.6569 15.3208 32.7012 14.8897 32.7012 14.4495H30.3012C30.3012 14.7284 30.2732 14.9996 30.2202 15.2607L32.5722 15.7382ZM35.7012 14.2995H31.3962V16.6995H35.7012V14.2995ZM41.1012 19.6995C41.1012 16.7171 38.6835 14.2995 35.7012 14.2995V16.6995C37.358 16.6995 38.7012 18.0426 38.7012 19.6995H41.1012ZM41.1012 24.0045V19.6995H38.7012V24.0045H41.1012ZM40.9512 22.6995C40.511 22.6995 40.0799 22.7437 39.6625 22.8285L40.1399 25.1805C40.4011 25.1275 40.6722 25.0995 40.9512 25.0995V22.6995ZM47.4012 29.1495C47.4012 25.5872 44.5134 22.6995 40.9512 22.6995V25.0995C43.1879 25.0995 45.0012 26.9127 45.0012 29.1495H47.4012ZM40.9512 35.5995C44.5134 35.5995 47.4012 32.7117 47.4012 29.1495H45.0012C45.0012 31.3862 43.1879 33.1995 40.9512 33.1995V35.5995ZM39.6625 35.4705C40.0799 35.5552 40.511 35.5995 40.9512 35.5995V33.1995C40.6722 33.1995 40.4011 33.1714 40.1399 33.1184L39.6625 35.4705ZM41.1012 38.5995V34.2944H38.7012V38.5995H41.1012ZM35.7012 43.9995C38.6835 43.9995 41.1012 41.5818 41.1012 38.5995H38.7012C38.7012 40.2563 37.358 41.5995 35.7012 41.5995V43.9995ZM31.3955 43.9995H35.7012V41.5995H31.3955V43.9995ZM30.3004 41.7499C30.3004 42.0287 30.2724 42.2998 30.2194 42.5608L32.5715 43.0381C32.6562 42.6208 32.7004 42.1899 32.7004 41.7499H30.3004ZM26.2504 37.6999C28.4872 37.6999 30.3004 39.5131 30.3004 41.7499H32.7004C32.7004 38.1876 29.8127 35.2999 26.2504 35.2999V37.6999ZM22.2004 41.7499C22.2004 39.5131 24.0137 37.6999 26.2504 37.6999V35.2999C22.6882 35.2999 19.8004 38.1876 19.8004 41.7499H22.2004ZM22.2814 42.5608C22.2284 42.2998 22.2004 42.0287 22.2004 41.7499H19.8004C19.8004 42.1899 19.8447 42.6208 19.9293 43.0381L22.2814 42.5608ZM16.8012 43.9995H21.1054V41.5995H16.8012V43.9995ZM11.4012 38.5995C11.4012 41.5818 13.8189 43.9995 16.8012 43.9995V41.5995C15.1443 41.5995 13.8012 40.2563 13.8012 38.5995H11.4012ZM11.4012 34.2947V38.5995H13.8012V34.2947H11.4012ZM13.6508 33.1997C13.372 33.1997 13.1009 33.1717 12.8398 33.1187L12.3626 35.4708C12.7798 35.5554 13.2108 35.5997 13.6508 35.5997V33.1997ZM17.7008 29.1497C17.7008 31.3864 15.8876 33.1997 13.6508 33.1997V35.5997C17.213 35.5997 20.1008 32.7119 20.1008 29.1497H17.7008ZM13.6508 25.0997C15.8876 25.0997 17.7008 26.9129 17.7008 29.1497H20.1008C20.1008 25.5874 17.213 22.6997 13.6508 22.6997V25.0997ZM12.8398 25.1806C13.1009 25.1277 13.3719 25.0997 13.6508 25.0997V22.6997C13.2108 22.6997 12.7798 22.7439 12.3626 22.8286L12.8398 25.1806ZM11.4012 19.6995V24.0046H13.8012V19.6995H11.4012ZM16.8012 14.2995C13.8189 14.2995 11.4012 16.7171 11.4012 19.6995H13.8012C13.8012 18.0426 15.1443 16.6995 16.8012 16.6995V14.2995ZM21.1062 14.2995H16.8012V16.6995H21.1062V14.2995ZM19.8012 14.4495C19.8012 14.8897 19.8455 15.3208 19.9302 15.7382L22.2822 15.2607C22.2292 14.9996 22.2012 14.7284 22.2012 14.4495H19.8012ZM26.2512 7.99946C22.689 7.99946 19.8012 10.8872 19.8012 14.4495H22.2012C22.2012 12.2127 24.0144 10.3995 26.2512 10.3995V7.99946ZM32.7012 14.4495C32.7012 10.8872 29.8134 7.99946 26.2512 7.99946V10.3995C28.4879 10.3995 30.3012 12.2127 30.3012 14.4495H32.7012Z" fill="#3B82F6"/>
</g>
<defs>
<filter id="filter0_dd_277_17945" x="0" y="0" width="54" height="54" filterUnits="userSpaceOnUse" color-interpolation-filters="sRGB">
<feFlood flood-opacity="0" result="BackgroundImageFix"/>
<feColorMatrix in="SourceAlpha" type="matrix" values="0 0 0 0 0 0 0 0 0 0 0 0 0 0 0 0 0 0 127 0" result="hardAlpha"/>
<feOffset dy="1"/>
<feGaussianBlur stdDeviation="1"/>
<feColorMatrix type="matrix" values="0 0 0 0 0 0 0 0 0 0 0 0 0 0 0 0 0 0 0.06 0"/>
<feBlend mode="normal" in2="BackgroundImageFix" result="effect1_dropShadow_277_17945"/>
<feColorMatrix in="SourceAlpha" type="matrix" values="0 0 0 0 0 0 0 0 0 0 0 0 0 0 0 0 0 0 127 0" result="hardAlpha"/>
<feOffset dy="1"/>
<feGaussianBlur stdDeviation="1.5"/>
<feColorMatrix type="matrix" values="0 0 0 0 0 0 0 0 0 0 0 0 0 0 0 0 0 0 0.1 0"/>
<feBlend mode="normal" in2="effect1_dropShadow_277_17945" result="effect2_dropShadow_277_17945"/>
<feBlend mode="normal" in="SourceGraphic" in2="effect2_dropShadow_277_17945" result="shape"/>
</filter>
</defs>
</svg>
