<svg width="54" height="54" viewBox="0 0 54 54" fill="none" xmlns="http://www.w3.org/2000/svg">
<g filter="url(#filter0_dd_277_17995)">
<rect x="3.5" y="2.5" width="47" height="47" rx="7.5" fill="white" stroke="#D1D5DB"/>
<path d="M13.7992 12.4027C13.7992 11.5476 14.1411 10.728 14.7488 10.1265V10.1265C15.3485 9.53283 16.1582 9.19983 17.0021 9.19983H36.9963C37.8401 9.19983 38.6499 9.53283 39.2496 10.1265V10.1265C39.8573 10.728 40.1992 11.5476 40.1992 12.4027V17.197C40.1992 18.052 39.8573 18.8716 39.2496 19.4732V19.4732C38.6499 20.0668 37.8401 20.3998 36.9963 20.3998H17.0021C16.1582 20.3998 15.3485 20.0668 14.7488 19.4732V19.4732C14.1411 18.8716 13.7992 18.052 13.7992 17.197V12.4027Z" stroke="#3B82F6" stroke-width="2.4"/>
<path d="M13.7992 23.6035C13.7992 22.7484 14.1411 21.9288 14.7488 21.3273V21.3273C15.3485 20.7336 16.1582 20.4006 17.0021 20.4006H36.9963C37.8401 20.4006 38.6499 20.7336 39.2496 21.3273V21.3273C39.8573 21.9288 40.1992 22.7484 40.1992 23.6035V28.3978C40.1992 29.2528 39.8573 30.0724 39.2496 30.674V30.674C38.6499 31.2676 37.8401 31.6006 36.9963 31.6006H17.0021C16.1582 31.6006 15.3485 31.2676 14.7488 30.674V30.674C14.1411 30.0724 13.7992 29.2529 13.7992 28.3978V23.6035Z" stroke="#3B82F6" stroke-width="2.4"/>
<path d="M13.7992 34.8019C13.7992 33.9468 14.1411 33.1272 14.7488 32.5256V32.5256C15.3485 31.932 16.1582 31.599 17.0021 31.599H36.9963C37.8401 31.599 38.6499 31.932 39.2496 32.5256V32.5256C39.8573 33.1272 40.1992 33.9468 40.1992 34.8019V39.5961C40.1992 40.4512 39.8573 41.2708 39.2496 41.8724V41.8724C38.6499 42.466 37.8401 42.799 36.9963 42.799H17.0021C16.1582 42.799 15.3485 42.466 14.7488 41.8724V41.8724C14.1411 41.2708 13.7992 40.4512 13.7992 39.5961V34.8019Z" stroke="#3B82F6" stroke-width="2.4"/>
<path fill-rule="evenodd" clip-rule="evenodd" d="M19.4414 27.4006C18.6682 27.4006 18.0414 26.7738 18.0414 26.0006C18.0414 25.2274 18.6682 24.6006 19.4414 24.6006L19.47 24.6006C20.2432 24.6006 20.87 25.2274 20.87 26.0006C20.87 26.7738 20.2432 27.4006 19.47 27.4006L19.4414 27.4006Z" fill="#93C5FD"/>
<path fill-rule="evenodd" clip-rule="evenodd" d="M19.4414 16.1998C18.6682 16.1998 18.0414 15.573 18.0414 14.7998C18.0414 14.0266 18.6682 13.3998 19.4414 13.3998L19.47 13.3998C20.2432 13.3998 20.87 14.0266 20.87 14.7998C20.87 15.573 20.2432 16.1998 19.47 16.1998L19.4414 16.1998Z" fill="#3B82F6"/>
<path fill-rule="evenodd" clip-rule="evenodd" d="M19.4414 38.5991C18.6682 38.5991 18.0414 37.9723 18.0414 37.1991C18.0414 36.4259 18.6682 35.7991 19.4414 35.7991L19.47 35.7991C20.2432 35.7991 20.87 36.4259 20.87 37.1991C20.87 37.9723 20.2432 38.5991 19.47 38.5991L19.4414 38.5991Z" fill="#BFDBFE"/>
</g>
<defs>
<filter id="filter0_dd_277_17995" x="0" y="0" width="54" height="54" filterUnits="userSpaceOnUse" color-interpolation-filters="sRGB">
<feFlood flood-opacity="0" result="BackgroundImageFix"/>
<feColorMatrix in="SourceAlpha" type="matrix" values="0 0 0 0 0 0 0 0 0 0 0 0 0 0 0 0 0 0 127 0" result="hardAlpha"/>
<feOffset dy="1"/>
<feGaussianBlur stdDeviation="1"/>
<feColorMatrix type="matrix" values="0 0 0 0 0 0 0 0 0 0 0 0 0 0 0 0 0 0 0.06 0"/>
<feBlend mode="normal" in2="BackgroundImageFix" result="effect1_dropShadow_277_17995"/>
<feColorMatrix in="SourceAlpha" type="matrix" values="0 0 0 0 0 0 0 0 0 0 0 0 0 0 0 0 0 0 127 0" result="hardAlpha"/>
<feOffset dy="1"/>
<feGaussianBlur stdDeviation="1.5"/>
<feColorMatrix type="matrix" values="0 0 0 0 0 0 0 0 0 0 0 0 0 0 0 0 0 0 0.1 0"/>
<feBlend mode="normal" in2="effect1_dropShadow_277_17995" result="effect2_dropShadow_277_17995"/>
<feBlend mode="normal" in="SourceGraphic" in2="effect2_dropShadow_277_17995" result="shape"/>
</filter>
</defs>
</svg>
