<svg width="54" height="54" viewBox="0 0 54 54" fill="none" xmlns="http://www.w3.org/2000/svg">
<g filter="url(#filter0_dd_277_17979)">
<rect x="3.5" y="2.5" width="47" height="47" rx="7.5" fill="white" stroke="#D1D5DB"/>
<path d="M12.6 18.533V33.4663L26.9999 42.7996V27.8663L12.6 18.533Z" fill="#93C5FD"/>
<path d="M12.6 18.5326L13.2533 17.526C12.8843 17.2865 12.4138 17.2681 12.0272 17.4781C11.6407 17.688 11.4 18.0927 11.4 18.5326H12.6ZM12.6005 18.5329L11.9472 19.5395C12.3444 19.7973 12.8559 19.7974 13.2532 19.5399L12.6005 18.5329ZM26.9999 9.19995L27.6526 8.19297C27.2556 7.93561 26.7443 7.93561 26.3473 8.19297L26.9999 9.19995ZM41.3994 18.5329L40.7467 19.5399C41.1441 19.7975 41.6557 19.7973 42.0529 19.5394L41.3994 18.5329ZM41.3999 18.5326H42.5999C42.5999 18.0926 42.3592 17.6879 41.9726 17.478C41.5859 17.2681 41.1154 17.2865 40.7464 17.5261L41.3999 18.5326ZM41.3999 33.4659L42.0526 34.4729C42.3939 34.2517 42.5999 33.8726 42.5999 33.4659H41.3999ZM27 42.7992H25.8C25.8 43.239 26.0405 43.6435 26.4269 43.8536C26.8133 44.0636 27.2836 44.0454 27.6527 43.8062L27 42.7992ZM27 27.8666H28.2C28.2 27.427 27.9596 27.0226 27.5734 26.8125C27.1873 26.6024 26.7172 26.6203 26.3481 26.8591L27 27.8666ZM26.9999 27.8666L26.348 26.8591C26.0063 27.0803 25.7999 27.4596 25.7999 27.8666H26.9999ZM26.9999 42.7992L26.3473 43.8062C26.7163 44.0454 27.1866 44.0636 27.573 43.8536C27.9594 43.6435 28.1999 43.239 28.1999 42.7992H26.9999ZM12.6 33.4659H11.4C11.4 33.8726 11.606 34.2517 11.9473 34.4729L12.6 33.4659ZM11.4 18.5326V18.5333H13.8V18.5326H11.4ZM13.2538 17.5263L13.2533 17.526L11.9467 19.5392L11.9472 19.5395L13.2538 17.5263ZM13.2532 19.5399L27.6526 10.2069L26.3473 8.19297L11.9479 17.5259L13.2532 19.5399ZM26.3473 10.2069L40.7467 19.5399L42.052 17.526L27.6526 8.19297L26.3473 10.2069ZM42.0529 19.5394L42.0535 19.539L40.7464 17.5261L40.7459 17.5265L42.0529 19.5394ZM40.1999 18.5326V33.4659H42.5999V18.5326H40.1999ZM40.7473 32.4589L26.3473 41.7922L27.6527 43.8062L42.0526 34.4729L40.7473 32.4589ZM28.2 42.7992V27.8666H25.8V42.7992H28.2ZM26.3481 26.8591L26.348 26.8591L27.6518 28.8741L27.6519 28.8741L26.3481 26.8591ZM28.1999 42.7992V27.8666H25.7999V42.7992H28.1999ZM11.9473 34.4729L26.3473 43.8062L27.6526 41.7922L13.2527 32.4589L11.9473 34.4729ZM11.4 18.5333V33.4659H13.8V18.5333H11.4Z" fill="#3B82F6"/>
<path d="M12.6 18.5326L26.9999 27.8659L41.3999 18.5326" stroke="#3B82F6" stroke-width="2.4" stroke-linejoin="round"/>
<path d="M27 27.8654V42.7987" stroke="#3B82F6" stroke-width="2.4" stroke-linejoin="round"/>
</g>
<defs>
<filter id="filter0_dd_277_17979" x="0" y="0" width="54" height="54" filterUnits="userSpaceOnUse" color-interpolation-filters="sRGB">
<feFlood flood-opacity="0" result="BackgroundImageFix"/>
<feColorMatrix in="SourceAlpha" type="matrix" values="0 0 0 0 0 0 0 0 0 0 0 0 0 0 0 0 0 0 127 0" result="hardAlpha"/>
<feOffset dy="1"/>
<feGaussianBlur stdDeviation="1"/>
<feColorMatrix type="matrix" values="0 0 0 0 0 0 0 0 0 0 0 0 0 0 0 0 0 0 0.06 0"/>
<feBlend mode="normal" in2="BackgroundImageFix" result="effect1_dropShadow_277_17979"/>
<feColorMatrix in="SourceAlpha" type="matrix" values="0 0 0 0 0 0 0 0 0 0 0 0 0 0 0 0 0 0 127 0" result="hardAlpha"/>
<feOffset dy="1"/>
<feGaussianBlur stdDeviation="1.5"/>
<feColorMatrix type="matrix" values="0 0 0 0 0 0 0 0 0 0 0 0 0 0 0 0 0 0 0.1 0"/>
<feBlend mode="normal" in2="effect1_dropShadow_277_17979" result="effect2_dropShadow_277_17979"/>
<feBlend mode="normal" in="SourceGraphic" in2="effect2_dropShadow_277_17979" result="shape"/>
</filter>
</defs>
</svg>
